<svg xmlns="http://www.w3.org/2000/svg" xmlns:xlink="http://www.w3.org/1999/xlink" width="64" height="64" viewBox="0 0 64 64">
  <defs>
    <filter id="Path_70" x="0" y="0" width="64" height="64" filterUnits="userSpaceOnUse">
      <feOffset dx="2" dy="3" input="SourceAlpha"/>
      <feGaussianBlur stdDeviation="3" result="blur"/>
      <feFlood flood-opacity="0.161"/>
      <feComposite operator="in" in2="blur"/>
      <feComposite in="SourceGraphic"/>
    </filter>
  </defs>
  <g id="Group_193" data-name="Group 193" transform="translate(-469 -3143)">
    <g transform="matrix(1, 0, 0, 1, 469, 3143)" filter="url(#Path_70)">
      <path id="Path_70-2" data-name="Path 70" d="M23,0A23,23,0,1,1,0,23,23,23,0,0,1,23,0Z" transform="translate(7 6)" fill="#4553a0"/>
    </g>
    <path id="Icon_ionic-ios-arrow-round-back" data-name="Icon ionic-ios-arrow-round-back" d="M18.846,11.471a.78.78,0,0,0-.006,1.1l3.625,3.637H8.652a.776.776,0,0,0,0,1.553H22.465L18.834,21.4a.786.786,0,0,0,.006,1.1.773.773,0,0,0,1.093-.006l4.921-4.957h0a.872.872,0,0,0,.161-.245.741.741,0,0,0,.06-.3.778.778,0,0,0-.221-.543l-4.921-4.957A.761.761,0,0,0,18.846,11.471Z" transform="translate(482.118 3154.748)" fill="#fff"/>
  </g>
</svg>
