<svg xmlns="http://www.w3.org/2000/svg" xmlns:xlink="http://www.w3.org/1999/xlink" width="64" height="64" viewBox="0 0 64 64">
  <defs>
    <filter id="Path_16" x="0" y="0" width="64" height="64" filterUnits="userSpaceOnUse">
      <feOffset dx="2" dy="3" input="SourceAlpha"/>
      <feGaussianBlur stdDeviation="3" result="blur"/>
      <feFlood flood-opacity="0.161"/>
      <feComposite operator="in" in2="blur"/>
      <feComposite in="SourceGraphic"/>
    </filter>
  </defs>
  <g id="Group_199" data-name="Group 199" transform="translate(-1550 -33)">
    <g transform="matrix(1, 0, 0, 1, 1550, 33)" filter="url(#Path_16)">
      <path id="Path_16-2" data-name="Path 16" d="M23,0A23,23,0,1,1,0,23,23,23,0,0,1,23,0Z" transform="translate(7 6)" fill="#f16c54"/>
    </g>
    <path id="Icon_awesome-user-alt" data-name="Icon awesome-user-alt" d="M9.407,10.583A5.291,5.291,0,1,0,4.116,5.291,5.293,5.293,0,0,0,9.407,10.583Zm4.7,1.176H12.086a6.4,6.4,0,0,1-5.358,0H4.7a4.7,4.7,0,0,0-4.7,4.7v.588a1.764,1.764,0,0,0,1.764,1.764H17.05a1.764,1.764,0,0,0,1.764-1.764v-.588A4.7,4.7,0,0,0,14.111,11.759Z" transform="translate(1570.593 53)" fill="#fefefe"/>
  </g>
</svg>
